<?xml version="1.0" encoding="utf-8"?>
<!-- Generator: Adobe Illustrator 16.2.1, SVG Export Plug-In . SVG Version: 6.00 Build 0)  -->
<!DOCTYPE svg PUBLIC "-//W3C//DTD SVG 1.1//EN" "http://www.w3.org/Graphics/SVG/1.1/DTD/svg11.dtd">
<svg version="1.1" id="Layer_1" xmlns="http://www.w3.org/2000/svg" xmlns:xlink="http://www.w3.org/1999/xlink" x="0px" y="0px"
	 width="488.007px" height="72.815px" viewBox="0 0 488.007 72.815" enable-background="new 0 0 488.007 72.815"
	 xml:space="preserve">
<g>
	<path d="M0,57.045V0.956h38.078v11.376H12.956v12.087h20.698v10.507H12.956v22.12H0z"/>
	<path d="M40.684,57.045V0.956h25.28c2.633,0,5.068,0.553,7.308,1.659c2.238,1.106,4.173,2.555,5.807,4.345
		c1.632,1.791,2.909,3.819,3.832,6.083c0.921,2.265,1.382,4.556,1.382,6.873c0,1.738-0.211,3.411-0.632,5.017
		c-0.422,1.607-1.027,3.12-1.817,4.542c-0.79,1.422-1.751,2.699-2.883,3.832c-1.133,1.133-2.41,2.093-3.832,2.883l12.877,20.856
		H73.39L62.093,38.955H53.64v18.091H40.684z M53.64,27.657h11.85c1.527,0,2.844-0.723,3.95-2.172
		c1.106-1.448,1.659-3.304,1.659-5.569c0-2.317-0.632-4.16-1.896-5.53c-1.264-1.369-2.634-2.054-4.108-2.054H53.64V27.657z"/>
	<path d="M129.875,45.669v11.376H90.454V0.956h38.71v11.376H103.41v10.902h22.12V33.74h-22.12v11.929H129.875z"/>
	<path d="M171.113,17.387c-0.211-0.209-0.79-0.604-1.738-1.185c-0.948-0.579-2.133-1.185-3.555-1.817
		c-1.422-0.632-2.976-1.185-4.661-1.659c-1.686-0.474-3.371-0.711-5.056-0.711c-2.212,0-3.911,0.395-5.096,1.185
		c-1.185,0.79-1.777,1.949-1.777,3.476c0,0.948,0.263,1.738,0.79,2.37c0.526,0.632,1.276,1.199,2.251,1.699
		c0.974,0.501,2.185,0.961,3.634,1.382c1.448,0.422,3.121,0.896,5.017,1.422c2.686,0.738,5.108,1.541,7.268,2.41
		c2.159,0.869,4.002,1.949,5.53,3.239c1.527,1.292,2.698,2.858,3.516,4.701c0.816,1.844,1.225,4.056,1.225,6.636
		c0,3.16-0.593,5.834-1.778,8.019c-1.185,2.186-2.752,3.95-4.7,5.293c-1.949,1.343-4.201,2.318-6.754,2.923
		c-2.555,0.604-5.175,0.908-7.861,0.908c-2.054,0-4.147-0.158-6.28-0.474c-2.133-0.316-4.227-0.777-6.281-1.383
		c-2.054-0.604-4.056-1.329-6.004-2.172c-1.949-0.842-3.74-1.817-5.372-2.923l5.688-11.297c0.263,0.264,0.974,0.764,2.133,1.501
		c1.158,0.738,2.58,1.475,4.266,2.212c1.685,0.738,3.581,1.396,5.688,1.975c2.106,0.581,4.239,0.869,6.399,0.869
		c4.582,0,6.873-1.395,6.873-4.187c0-1.053-0.343-1.922-1.027-2.607c-0.685-0.684-1.633-1.304-2.844-1.856
		c-1.212-0.553-2.634-1.066-4.266-1.541c-1.633-0.474-3.424-1-5.372-1.58c-2.581-0.79-4.819-1.646-6.715-2.567
		c-1.896-0.921-3.476-1.987-4.74-3.2c-1.264-1.211-2.2-2.607-2.804-4.187c-0.606-1.58-0.909-3.423-0.909-5.53
		c0-2.949,0.553-5.556,1.659-7.821c1.106-2.264,2.607-4.173,4.503-5.727c1.896-1.553,4.094-2.726,6.596-3.516
		c2.501-0.79,5.147-1.185,7.94-1.185c2,0,3.95,0.185,5.846,0.553c1.896,0.369,3.7,0.843,5.412,1.422
		c1.711,0.58,3.33,1.238,4.858,1.975c1.527,0.738,2.896,1.475,4.108,2.212L171.113,17.387z"/>
	<path d="M230.363,0.956v56.09h-12.956V34.057H195.05v22.989h-12.956V0.956h12.956V22.68h22.357V0.956H230.363z"/>
	<path d="M322.946,45.985c2.212,0,4.081-0.46,5.609-1.382c1.526-0.921,2.765-2.146,3.713-3.674c0.948-1.527,1.619-3.278,2.015-5.253
		c0.395-1.975,0.593-3.989,0.593-6.043V0.956h12.956v28.677c0,3.898-0.488,7.532-1.462,10.902c-0.976,3.371-2.477,6.32-4.503,8.848
		c-2.028,2.528-4.609,4.517-7.742,5.964c-3.134,1.449-6.86,2.173-11.179,2.173c-4.477,0-8.295-0.763-11.455-2.291
		c-3.159-1.527-5.728-3.567-7.702-6.123c-1.975-2.554-3.424-5.517-4.345-8.888c-0.922-3.37-1.383-6.899-1.383-10.586V0.956h12.956
		v28.677c0,2.16,0.21,4.214,0.632,6.162c0.421,1.949,1.106,3.687,2.054,5.214c0.948,1.528,2.173,2.739,3.674,3.634
		C318.878,45.539,320.734,45.985,322.946,45.985z"/>
	<path d="M393.256,45.669v11.376h-39.421V0.956h38.71v11.376h-25.754v10.902h22.12V33.74h-22.12v11.929H393.256z"/>
	<path d="M432.495,17.387c-0.212-0.209-0.79-0.604-1.738-1.185c-0.948-0.579-2.133-1.185-3.556-1.817
		c-1.422-0.632-2.976-1.185-4.66-1.659c-1.687-0.474-3.371-0.711-5.057-0.711c-2.212,0-3.91,0.395-5.096,1.185
		c-1.185,0.79-1.777,1.949-1.777,3.476c0,0.948,0.264,1.738,0.79,2.37s1.276,1.199,2.252,1.699c0.974,0.501,2.185,0.961,3.634,1.382
		c1.448,0.422,3.12,0.896,5.017,1.422c2.686,0.738,5.107,1.541,7.268,2.41c2.159,0.869,4.002,1.949,5.53,3.239
		c1.527,1.292,2.698,2.858,3.516,4.701c0.815,1.844,1.225,4.056,1.225,6.636c0,3.16-0.593,5.834-1.777,8.019
		c-1.186,2.186-2.753,3.95-4.701,5.293c-1.948,1.343-4.2,2.318-6.754,2.923c-2.556,0.604-5.175,0.908-7.86,0.908
		c-2.055,0-4.147-0.158-6.281-0.474c-2.133-0.316-4.227-0.777-6.28-1.383c-2.054-0.604-4.056-1.329-6.004-2.172
		c-1.949-0.842-3.74-1.817-5.372-2.923l5.688-11.297c0.263,0.264,0.974,0.764,2.133,1.501c1.157,0.738,2.58,1.475,4.266,2.212
		c1.686,0.738,3.581,1.396,5.688,1.975c2.105,0.581,4.238,0.869,6.398,0.869c4.582,0,6.873-1.395,6.873-4.187
		c0-1.053-0.343-1.922-1.026-2.607c-0.686-0.684-1.634-1.304-2.845-1.856c-1.212-0.553-2.634-1.066-4.266-1.541
		c-1.633-0.474-3.424-1-5.372-1.58c-2.581-0.79-4.819-1.646-6.715-2.567c-1.896-0.921-3.477-1.987-4.74-3.2
		c-1.264-1.211-2.199-2.607-2.805-4.187s-0.908-3.423-0.908-5.53c0-2.949,0.553-5.556,1.659-7.821
		c1.105-2.264,2.606-4.173,4.503-5.727c1.896-1.553,4.095-2.726,6.597-3.516c2.501-0.79,5.147-1.185,7.939-1.185
		c2.001,0,3.95,0.185,5.846,0.553c1.896,0.369,3.699,0.843,5.411,1.422c1.711,0.58,3.331,1.238,4.859,1.975
		c1.526,0.738,2.896,1.475,4.107,2.212L432.495,17.387z"/>
	<path d="M488.007,12.332h-17.064v44.714h-12.956V12.332h-17.143V0.956h47.163V12.332z"/>
</g>
<g>
	<path id="magnifier-2-icon_1_" fill="#010101" d="M305.275,63.907l-17.888-17.889c3.366-4.627,5.355-10.317,5.355-16.464
		c0-15.469-12.586-28.054-28.055-28.054s-28.054,12.585-28.054,28.054c0,15.468,12.585,28.054,28.054,28.054
		c5.863,0,11.312-1.81,15.818-4.897l17.982,17.983L305.275,63.907z M244.861,29.554c0-10.933,8.895-19.828,19.827-19.828
		s19.827,8.895,19.827,19.828c0,10.932-8.895,19.827-19.827,19.827S244.861,40.486,244.861,29.554z"/>
	<path fill="#010101" d="M298.489,72.815l-18.181-18.182c-4.688,2.931-10.062,4.474-15.62,4.474
		c-16.296,0-29.554-13.258-29.554-29.554C235.135,13.258,248.393,0,264.688,0c16.297,0,29.555,13.258,29.555,29.554
		c0,5.844-1.692,11.449-4.908,16.291l18.062,18.062L298.489,72.815z M280.687,50.77l17.803,17.803l4.665-4.665l-17.733-17.734
		l0.754-1.037c3.315-4.558,5.068-9.946,5.068-15.582C291.243,14.912,279.331,3,264.688,3c-14.642,0-26.554,11.912-26.554,26.554
		c0,14.642,11.912,26.554,26.554,26.554c5.369,0,10.546-1.603,14.971-4.634L280.687,50.77z M264.688,50.881
		c-11.76,0-21.327-9.567-21.327-21.327c0-11.76,9.567-21.328,21.327-21.328s21.327,9.567,21.327,21.328
		C286.016,41.314,276.448,50.881,264.688,50.881z M264.688,11.227c-10.105,0-18.327,8.222-18.327,18.328
		c0,10.105,8.222,18.327,18.327,18.327s18.327-8.221,18.327-18.327C283.016,19.448,274.794,11.227,264.688,11.227z"/>
</g>
<path fill="#010101" d="M274.817,21.698c-1.893-2.56-5.798-2.164-8.598-1.447c-0.15-0.977-1.067-6.226-3.573-7.312
	c0,0-3.227-0.369-2.674,2.305c0,0,4.426,2.213,3.044,6.085c-13.738-2.858-8.852,9.682-8.852,9.682
	c4.701,18.072,10.021,13.922,10.021,13.922c4.908,1.728,6.299-1.537,6.299-1.537c3.136,0.031,3.78-1.69,3.78-1.69
	C278.506,32.208,274.817,21.698,274.817,21.698z"/>
</svg>
