<?xml version="1.0" encoding="utf-8"?>
<!-- Generator: Adobe Illustrator 16.0.0, SVG Export Plug-In . SVG Version: 6.00 Build 0)  -->
<!DOCTYPE svg PUBLIC "-//W3C//DTD SVG 1.1//EN" "http://www.w3.org/Graphics/SVG/1.1/DTD/svg11.dtd">
<svg version="1.1" id="Layer_1" xmlns="http://www.w3.org/2000/svg" xmlns:xlink="http://www.w3.org/1999/xlink" x="0px" y="0px"
	 width="690.79px" height="1419.081px" viewBox="0 0 690.79 1419.081" enable-background="new 0 0 690.79 1419.081"
	 xml:space="preserve">
<g>
	
		<rect x="24.423" y="826.447" opacity="0.8" fill="none" stroke="#E6E6E6" stroke-width="2" stroke-miterlimit="10" width="640" height="134"/>
	
		<rect x="24.423" y="1074.447" opacity="0.8" fill="none" stroke="#E6E6E6" stroke-width="2" stroke-miterlimit="10" width="640" height="132"/>
	
		<rect x="24.423" y="1253.447" opacity="0.8" fill="none" stroke="#E6E6E6" stroke-width="2" stroke-miterlimit="10" width="640" height="132"/>
	
		<rect x="24.423" y="587.447" opacity="0.8" fill="none" stroke="#E6E6E6" stroke-width="2" stroke-miterlimit="10" width="640" height="131"/>
	
		<rect x="24.423" y="30.447" opacity="0.8" fill="none" stroke="#E6E6E6" stroke-width="2" stroke-miterlimit="10" width="640" height="180"/>
	
		<rect x="24.423" y="271.447" opacity="0.8" fill="none" stroke="#E6E6E6" stroke-width="2" stroke-miterlimit="10" width="640" height="194"/>
</g>
<text transform="matrix(1 0 0 1 331.7236 129.9116)" font-family="'MyriadPro-Regular'" font-size="12">A Shed</text>
<text transform="matrix(1 0 0 1 305.9116 381.8447)" font-family="'MyriadPro-Regular'" font-size="12">B Line (Outdoors)</text>
<text transform="matrix(1 0 0 1 340.8652 650.2446)"><tspan x="0" y="0" font-family="'MyriadPro-Regular'" font-size="12">C</tspan><tspan x="-9.198" y="14.4" font-family="'MyriadPro-Regular'" font-size="12">Shed</tspan></text>
<text transform="matrix(1 0 0 1 331.3994 905.2446)" font-family="'MyriadPro-Regular'" font-size="12">D Shed</text>
<text transform="matrix(1 0 0 1 332.4434 1147.2446)" font-family="'MyriadPro-Regular'" font-size="12">E Shed</text>
<text transform="matrix(1 0 0 1 293.0967 1335.2446)" font-family="'MyriadPro-Regular'" font-size="12">F Shed (opening soon)</text>
<rect x="24.423" y="587.447" fill="#33CC66" stroke="#E6E6E6" stroke-width="2" stroke-miterlimit="10" width="20" height="36"/>
<rect x="44.423" y="587.447" fill="#33CC66" stroke="#E6E6E6" stroke-width="2" stroke-miterlimit="10" width="20" height="36"/>
<rect x="64.423" y="587.447" fill="#33CC66" stroke="#E6E6E6" stroke-width="2" stroke-miterlimit="10" width="20" height="36"/>
<rect x="84.423" y="587.447" fill="none" stroke="#E6E6E6" stroke-width="2" stroke-miterlimit="10" width="20" height="36"/>
<rect x="104.423" y="587.447" fill="none" stroke="#E6E6E6" stroke-width="2" stroke-miterlimit="10" width="20" height="36"/>
<rect x="124.423" y="587.447" fill="none" stroke="#E6E6E6" stroke-width="2" stroke-miterlimit="10" width="20" height="36"/>
<rect x="144.423" y="587.447" fill="none" stroke="#E6E6E6" stroke-width="2" stroke-miterlimit="10" width="20" height="36"/>
<rect x="164.423" y="587.447" fill="#33CC66" stroke="#E6E6E6" stroke-width="2" stroke-miterlimit="10" width="20" height="36"/>
<rect x="184.423" y="587.447" fill="#33CC66" stroke="#E6E6E6" stroke-width="2" stroke-miterlimit="10" width="20" height="36"/>
<rect x="204.423" y="587.447" fill="none" stroke="#E6E6E6" stroke-width="2" stroke-miterlimit="10" width="20" height="36"/>
<rect x="224.423" y="587.447" fill="#33CC66" stroke="#E6E6E6" stroke-width="2" stroke-miterlimit="10" width="20" height="36"/>
<rect x="244.423" y="587.447" fill="none" stroke="#E6E6E6" stroke-width="2" stroke-miterlimit="10" width="20" height="36"/>
<rect x="264.423" y="587.447" fill="none" stroke="#E6E6E6" stroke-width="2" stroke-miterlimit="10" width="20" height="36"/>
<rect x="284.423" y="587.447" fill="#33CC66" stroke="#E6E6E6" stroke-width="2" stroke-miterlimit="10" width="20" height="36"/>
<rect x="304.423" y="587.447" fill="none" stroke="#E6E6E6" stroke-width="2" stroke-miterlimit="10" width="20" height="36"/>
<rect x="604.423" y="587.447" fill="none" stroke="#E6E6E6" stroke-width="2" stroke-miterlimit="10" width="20" height="36"/>
<rect x="624.423" y="587.447" fill="#33CC66" stroke="#E6E6E6" stroke-width="2" stroke-miterlimit="10" width="20" height="36"/>
<rect x="644.423" y="587.447" fill="#33CC66" stroke="#E6E6E6" stroke-width="2" stroke-miterlimit="10" width="20" height="36"/>
<rect x="364.423" y="587.447" fill="none" stroke="#E6E6E6" stroke-width="2" stroke-miterlimit="10" width="20" height="36"/>
<rect x="384.423" y="587.447" fill="none" stroke="#E6E6E6" stroke-width="2" stroke-miterlimit="10" width="20" height="36"/>
<rect x="404.423" y="587.447" fill="#33CC66" stroke="#E6E6E6" stroke-width="2" stroke-miterlimit="10" width="20" height="36"/>
<rect x="424.423" y="587.447" fill="#33CC66" stroke="#E6E6E6" stroke-width="2" stroke-miterlimit="10" width="20" height="36"/>
<rect x="444.423" y="587.447" fill="#33CC66" stroke="#E6E6E6" stroke-width="2" stroke-miterlimit="10" width="20" height="36"/>
<rect x="464.423" y="587.447" fill="none" stroke="#E6E6E6" stroke-width="2" stroke-miterlimit="10" width="20" height="36"/>
<rect x="484.423" y="587.447" fill="#33CC66" stroke="#E6E6E6" stroke-width="2" stroke-miterlimit="10" width="20" height="36"/>
<rect x="504.423" y="587.447" fill="none" stroke="#E6E6E6" stroke-width="2" stroke-miterlimit="10" width="20" height="36"/>
<rect x="524.423" y="587.447" fill="none" stroke="#E6E6E6" stroke-width="2" stroke-miterlimit="10" width="20" height="36"/>
<rect x="544.423" y="587.447" fill="#33CC66" stroke="#E6E6E6" stroke-width="2" stroke-miterlimit="10" width="20" height="36"/>
<rect x="564.423" y="587.447" fill="none" stroke="#E6E6E6" stroke-width="2" stroke-miterlimit="10" width="20" height="36"/>
<rect x="584.423" y="587.447" fill="none" stroke="#E6E6E6" stroke-width="2" stroke-miterlimit="10" width="20" height="36"/>
<rect x="24.423" y="682.447" fill="#33CC66" stroke="#E6E6E6" stroke-width="2" stroke-miterlimit="10" width="20" height="36"/>
<rect x="44.423" y="682.447" fill="#33CC66" stroke="#E6E6E6" stroke-width="2" stroke-miterlimit="10" width="20" height="36"/>
<rect x="64.423" y="682.447" fill="#33CC66" stroke="#E6E6E6" stroke-width="2" stroke-miterlimit="10" width="20" height="36"/>
<rect x="84.423" y="682.447" fill="#33CC66" stroke="#E6E6E6" stroke-width="2" stroke-miterlimit="10" width="20" height="36"/>
<rect x="104.423" y="682.447" fill="#33CC66" stroke="#E6E6E6" stroke-width="2" stroke-miterlimit="10" width="20" height="36"/>
<rect x="124.423" y="682.447" fill="none" stroke="#E6E6E6" stroke-width="2" stroke-miterlimit="10" width="20" height="36"/>
<rect x="144.423" y="682.447" fill="none" stroke="#E6E6E6" stroke-width="2" stroke-miterlimit="10" width="20" height="36"/>
<rect x="164.423" y="682.447" fill="none" stroke="#E6E6E6" stroke-width="2" stroke-miterlimit="10" width="20" height="36"/>
<rect x="184.423" y="682.447" fill="none" stroke="#E6E6E6" stroke-width="2" stroke-miterlimit="10" width="20" height="36"/>
<rect x="204.423" y="682.447" fill="#33CC66" stroke="#E6E6E6" stroke-width="2" stroke-miterlimit="10" width="20" height="36"/>
<rect x="224.423" y="682.447" fill="#33CC66" stroke="#E6E6E6" stroke-width="2" stroke-miterlimit="10" width="20" height="36"/>
<rect x="244.423" y="682.447" fill="none" stroke="#E6E6E6" stroke-width="2" stroke-miterlimit="10" width="20" height="36"/>
<rect x="264.423" y="682.447" fill="none" stroke="#E6E6E6" stroke-width="2" stroke-miterlimit="10" width="20" height="36"/>
<rect x="284.423" y="682.447" fill="none" stroke="#E6E6E6" stroke-width="2" stroke-miterlimit="10" width="20" height="36"/>
<rect x="304.423" y="682.447" fill="none" stroke="#E6E6E6" stroke-width="2" stroke-miterlimit="10" width="20" height="36"/>
<rect x="604.423" y="682.447" fill="#33CC66" stroke="#E6E6E6" stroke-width="2" stroke-miterlimit="10" width="20" height="36"/>
<rect x="624.423" y="682.447" fill="#33CC66" stroke="#E6E6E6" stroke-width="2" stroke-miterlimit="10" width="20" height="36"/>
<rect x="644.423" y="682.447" fill="#33CC66" stroke="#E6E6E6" stroke-width="2" stroke-miterlimit="10" width="20" height="36"/>
<rect x="364.423" y="682.447" fill="#33CC66" stroke="#E6E6E6" stroke-width="2" stroke-miterlimit="10" width="20" height="36"/>
<rect x="384.423" y="682.447" fill="none" stroke="#E6E6E6" stroke-width="2" stroke-miterlimit="10" width="20" height="36"/>
<rect x="404.423" y="682.447" fill="none" stroke="#E6E6E6" stroke-width="2" stroke-miterlimit="10" width="20" height="36"/>
<rect x="424.423" y="682.447" fill="#33CC66" stroke="#E6E6E6" stroke-width="2" stroke-miterlimit="10" width="20" height="36"/>
<rect x="444.423" y="682.447" fill="#33CC66" stroke="#E6E6E6" stroke-width="2" stroke-miterlimit="10" width="20" height="36"/>
<rect x="464.423" y="682.447" fill="#33CC66" stroke="#E6E6E6" stroke-width="2" stroke-miterlimit="10" width="20" height="36"/>
<rect x="484.423" y="682.447" fill="none" stroke="#E6E6E6" stroke-width="2" stroke-miterlimit="10" width="20" height="36"/>
<rect x="504.423" y="682.447" fill="none" stroke="#E6E6E6" stroke-width="2" stroke-miterlimit="10" width="20" height="36"/>
<rect x="524.423" y="682.447" fill="none" stroke="#E6E6E6" stroke-width="2" stroke-miterlimit="10" width="20" height="36"/>
<rect x="544.423" y="682.447" fill="none" stroke="#E6E6E6" stroke-width="2" stroke-miterlimit="10" width="20" height="36"/>
<rect x="564.423" y="682.447" fill="none" stroke="#E6E6E6" stroke-width="2" stroke-miterlimit="10" width="20" height="36"/>
<rect x="584.423" y="682.447" fill="#33CC66" stroke="#E6E6E6" stroke-width="2" stroke-miterlimit="10" width="20" height="36"/>
<rect x="44.423" y="643.447" fill="none" stroke="#E6E6E6" stroke-width="2" stroke-miterlimit="10" width="20" height="20"/>
<rect x="64.423" y="643.447" fill="none" stroke="#E6E6E6" stroke-width="2" stroke-miterlimit="10" width="20" height="20"/>
<rect x="84.423" y="643.447" fill="none" stroke="#E6E6E6" stroke-width="2" stroke-miterlimit="10" width="20" height="20"/>
<rect x="104.423" y="643.447" fill="none" stroke="#E6E6E6" stroke-width="2" stroke-miterlimit="10" width="20" height="20"/>
<rect x="124.423" y="643.447" fill="none" stroke="#E6E6E6" stroke-width="2" stroke-miterlimit="10" width="20" height="20"/>
<rect x="144.423" y="643.447" fill="none" stroke="#E6E6E6" stroke-width="2" stroke-miterlimit="10" width="20" height="20"/>
<rect x="164.423" y="643.447" fill="none" stroke="#E6E6E6" stroke-width="2" stroke-miterlimit="10" width="20" height="20"/>
<rect x="184.423" y="643.447" fill="none" stroke="#E6E6E6" stroke-width="2" stroke-miterlimit="10" width="20" height="20"/>
<rect x="204.423" y="643.447" fill="none" stroke="#E6E6E6" stroke-width="2" stroke-miterlimit="10" width="20" height="20"/>
<rect x="224.423" y="643.447" fill="none" stroke="#E6E6E6" stroke-width="2" stroke-miterlimit="10" width="20" height="20"/>
<rect x="244.423" y="643.447" fill="none" stroke="#E6E6E6" stroke-width="2" stroke-miterlimit="10" width="20" height="20"/>
<rect x="264.423" y="643.447" fill="none" stroke="#E6E6E6" stroke-width="2" stroke-miterlimit="10" width="20" height="20"/>
<rect x="284.423" y="643.447" fill="none" stroke="#E6E6E6" stroke-width="2" stroke-miterlimit="10" width="20" height="20"/>
<rect x="304.423" y="643.447" fill="none" stroke="#E6E6E6" stroke-width="2" stroke-miterlimit="10" width="20" height="20"/>
<rect x="364.423" y="643.447" fill="none" stroke="#E6E6E6" stroke-width="2" stroke-miterlimit="10" width="20" height="20"/>
<rect x="384.423" y="643.447" fill="none" stroke="#E6E6E6" stroke-width="2" stroke-miterlimit="10" width="20" height="20"/>
<rect x="404.423" y="643.447" fill="none" stroke="#E6E6E6" stroke-width="2" stroke-miterlimit="10" width="20" height="20"/>
<rect x="424.423" y="643.447" fill="none" stroke="#E6E6E6" stroke-width="2" stroke-miterlimit="10" width="20" height="20"/>
<rect x="444.423" y="643.447" fill="none" stroke="#E6E6E6" stroke-width="2" stroke-miterlimit="10" width="20" height="20"/>
<rect x="464.423" y="643.447" fill="none" stroke="#E6E6E6" stroke-width="2" stroke-miterlimit="10" width="20" height="20"/>
<rect x="484.423" y="643.447" fill="none" stroke="#E6E6E6" stroke-width="2" stroke-miterlimit="10" width="20" height="20"/>
<rect x="504.423" y="643.447" fill="none" stroke="#E6E6E6" stroke-width="2" stroke-miterlimit="10" width="20" height="20"/>
<rect x="524.423" y="643.447" fill="none" stroke="#E6E6E6" stroke-width="2" stroke-miterlimit="10" width="20" height="20"/>
<rect x="544.423" y="643.447" fill="none" stroke="#E6E6E6" stroke-width="2" stroke-miterlimit="10" width="20" height="20"/>
<rect x="564.423" y="643.447" fill="none" stroke="#E6E6E6" stroke-width="2" stroke-miterlimit="10" width="20" height="20"/>
<rect x="584.423" y="643.447" fill="none" stroke="#E6E6E6" stroke-width="2" stroke-miterlimit="10" width="20" height="20"/>
<rect x="604.423" y="643.447" fill="none" stroke="#E6E6E6" stroke-width="2" stroke-miterlimit="10" width="20" height="20"/>
</svg>
